<svg xmlns="http://www.w3.org/2000/svg" viewBox="0 0 800 520">
  <defs>
    <linearGradient id="bg3" x1="0" y1="0" x2="1" y2="1">
      <stop offset="0%" stop-color="#fff7ed" />
      <stop offset="100%" stop-color="#fed7aa" />
    </linearGradient>
    <linearGradient id="shield" x1="0" y1="0" x2="1" y2="1">
      <stop offset="0%" stop-color="#f97316" />
      <stop offset="100%" stop-color="#ea580c" />
    </linearGradient>
  </defs>
  <rect width="800" height="520" fill="url(#bg3)" />
  <g transform="translate(240 100)">
    <path d="M160 0 L320 60 V200 C320 270 240 340 160 360 C80 340 0 270 0 200 V60 Z" fill="url(#shield)" />
    <path d="M160 60 L260 100 V190 C260 240 210 280 160 292 C110 280 60 240 60 190 V100 Z" fill="#fff7ed" />
    <path d="M160 120 L200 140 V180 C200 205 185 225 160 232 C135 225 120 205 120 180 V140 Z" fill="#fb923c" />
    <rect x="140" y="80" width="40" height="60" rx="12" fill="#c2410c" opacity="0.8" />
  </g>
  <text x="50%" y="430" text-anchor="middle" font-family="Prompt, 'Sarabun', sans-serif" font-size="34" fill="#9a3412" font-weight="600">แจ้งเตือนระวังมิจฉาชีพแอบอ้าง</text>
</svg>
