<svg xmlns="http://www.w3.org/2000/svg" viewBox="0 0 800 520">
  <defs>
    <linearGradient id="sunset" x1="0" y1="0" x2="1" y2="1">
      <stop offset="0%" stop-color="#fef3c7" />
      <stop offset="100%" stop-color="#fcd34d" />
    </linearGradient>
    <linearGradient id="van" x1="0" y1="0" x2="1" y2="0">
      <stop offset="0%" stop-color="#4ade80" />
      <stop offset="100%" stop-color="#22c55e" />
    </linearGradient>
  </defs>
  <rect width="800" height="520" fill="#f4fdf7" />
  <circle cx="120" cy="120" r="80" fill="url(#sunset)" opacity="0.85" />
  <path d="M0 360 C120 320 180 320 300 360 S480 400 620 360 S740 320 800 360 V520 H0 Z" fill="#d1fae5" />
  <g transform="translate(160 240)">
    <rect x="20" y="60" width="420" height="120" rx="28" fill="url(#van)" />
    <rect x="120" y="30" width="220" height="90" rx="20" fill="#fff" />
    <rect x="180" y="0" width="100" height="60" rx="18" fill="#86efac" />
    <circle cx="130" cy="180" r="34" fill="#1e293b" />
    <circle cx="330" cy="180" r="34" fill="#1e293b" />
    <circle cx="130" cy="180" r="18" fill="#fff" opacity="0.5" />
    <circle cx="330" cy="180" r="18" fill="#fff" opacity="0.5" />
    <rect x="270" y="85" width="60" height="40" rx="8" fill="#22c55e" opacity="0.8" />
    <rect x="160" y="85" width="60" height="40" rx="8" fill="#22c55e" opacity="0.8" />
    <rect x="220" y="85" width="40" height="40" rx="8" fill="#fff" opacity="0.95" />
    <rect x="220" y="94" width="40" height="6" rx="3" fill="#16a34a" />
    <rect x="236" y="102" width="8" height="24" rx="4" fill="#16a34a" />
  </g>
  <text x="50%" y="430" text-anchor="middle" font-family="Prompt, 'Sarabun', sans-serif" font-size="36" fill="#166534" font-weight="600">คลินิกเคลื่อนที่บริการถึงชุมชน</text>
</svg>
